<svg xmlns="http://www.w3.org/2000/svg" viewBox="0 0 115 43.99"><g id="Слой_2" data-name="Слой 2"><g id="HEADER"><g id="Logo"><path d="M12.14,22.18H3.23V.33H0V25.44H12.14ZM21,.33H17.79V25.44H21ZM49,3.77a12.68,12.68,0,0,0-18,0,12.43,12.43,0,0,0-3.74,9.08A12.44,12.44,0,0,0,31,21.94a12.68,12.68,0,0,0,18,0,12.4,12.4,0,0,0,3.74-9.09A12.4,12.4,0,0,0,49,3.77ZM46.71,19.64a9.46,9.46,0,0,1-13.44,0,9.3,9.3,0,0,1-2.79-6.79,9.25,9.25,0,0,1,2.78-6.77,9.48,9.48,0,0,1,13.45,0,9.29,9.29,0,0,1,2.78,6.77A9.33,9.33,0,0,1,46.71,19.64Zm25.16-1.39L61.59.33h-3V25.44h3.23V7.3L72.29,25.44h2.82V.33H71.87ZM84.92.33H81.69V25.44h3.23Zm25.89,19.13a10.33,10.33,0,0,1-7,3,9.09,9.09,0,0,1-6.69-2.79,9.22,9.22,0,0,1-2.79-6.76,9.19,9.19,0,0,1,2.79-6.75,9.06,9.06,0,0,1,6.69-2.8,10.35,10.35,0,0,1,7,3l2.41-2.22A13.69,13.69,0,0,0,103.86.05a12.22,12.22,0,0,0-9,3.76,12.47,12.47,0,0,0-3.72,9.08A12.42,12.42,0,0,0,94.85,22a12.25,12.25,0,0,0,9,3.75q4.94,0,9.36-4.07ZM53,34.31h-.73v7.23h4.07v-.67H53Zm7.92,3a2.15,2.15,0,0,0-.72-.52,2.47,2.47,0,0,0-1.9,0,2.51,2.51,0,0,0-.76.52,2.38,2.38,0,0,0-.51.8,2.73,2.73,0,0,0-.18,1,2.51,2.51,0,0,0,.19,1,2.38,2.38,0,0,0,.51.8,2.28,2.28,0,0,0,.77.52,2.48,2.48,0,0,0,1,.19,2.71,2.71,0,0,0,1.1-.23,2.62,2.62,0,0,0,.94-.78l-.52-.43a1.82,1.82,0,0,1-.59.58,1.81,1.81,0,0,1-1.59.12,1.77,1.77,0,0,1-.53-.36,1.93,1.93,0,0,1-.38-.55,2.2,2.2,0,0,1-.17-.67h4V39a2.83,2.83,0,0,0-.15-.93A2.25,2.25,0,0,0,60.9,37.35Zm-3.34,1.43a1.33,1.33,0,0,1,.14-.57,1.72,1.72,0,0,1,.36-.49,1.93,1.93,0,0,1,.53-.34,1.58,1.58,0,0,1,.63-.13,1.48,1.48,0,0,1,1.14.43,1.52,1.52,0,0,1,.4,1.1Zm9.17-1.22h0a2.13,2.13,0,0,0-.43-.46,3.41,3.41,0,0,0-.47-.28,2.9,2.9,0,0,0-.48-.14,2.42,2.42,0,0,0-.45,0,2.36,2.36,0,0,0-1.73.71,2.54,2.54,0,0,0-.68,1.76,2.4,2.4,0,0,0,.19,1,2.21,2.21,0,0,0,.53.77,2.29,2.29,0,0,0,.78.51,2.58,2.58,0,0,0,1,.18,2.53,2.53,0,0,0,1-.2,1.82,1.82,0,0,0,.79-.7h0v.86a2.86,2.86,0,0,1-.09.73,1.58,1.58,0,0,1-.32.6,1.43,1.43,0,0,1-.57.4,2.21,2.21,0,0,1-.86.15,2.26,2.26,0,0,1-1-.24,2.1,2.1,0,0,1-.77-.64l-.49.53a2.93,2.93,0,0,0,1,.73,3.38,3.38,0,0,0,1.27.23,3,3,0,0,0,1.3-.24,2.11,2.11,0,0,0,.77-.62,2,2,0,0,0,.38-.8,4.2,4.2,0,0,0,.09-.83V36.76h-.67Zm-.1,2.29a1.61,1.61,0,0,1-.39.57,1.93,1.93,0,0,1-.59.38,2,2,0,0,1-.69.13,1.66,1.66,0,0,1-.7-.15,1.81,1.81,0,0,1-.55-.4,1.86,1.86,0,0,1,0-2.58,1.81,1.81,0,0,1,.55-.4,1.66,1.66,0,0,1,.7-.15,1.7,1.7,0,0,1,1.67,1.13,2.08,2.08,0,0,1,.12.71A1.87,1.87,0,0,1,66.63,39.85Zm6,.62V38.34a1.75,1.75,0,0,0-.14-.76,1.58,1.58,0,0,0-.37-.53,1.53,1.53,0,0,0-.56-.31,2.07,2.07,0,0,0-.66-.1,2.69,2.69,0,0,0-2,.69l.41.48a2.09,2.09,0,0,1,1.45-.56,1.08,1.08,0,0,1,1.21,1.24v.12h-.33c-.28,0-.6,0-.94,0a4.19,4.19,0,0,0-1,.2,1.87,1.87,0,0,0-.75.5,1.31,1.31,0,0,0-.3.91,1.17,1.17,0,0,0,.14.61,1.29,1.29,0,0,0,.36.44,1.61,1.61,0,0,0,.52.27,2.49,2.49,0,0,0,.61.08,2.09,2.09,0,0,0,1-.21,1.69,1.69,0,0,0,.69-.69h0c0,.13,0,.27,0,.4a3.71,3.71,0,0,0,0,.38h.65a4.69,4.69,0,0,1,0-.49C72.62,40.84,72.61,40.65,72.61,40.47Zm-.67-1a2.35,2.35,0,0,1-.08.6,1.47,1.47,0,0,1-.27.49,1.25,1.25,0,0,1-.45.33,1.56,1.56,0,0,1-.64.12,1.41,1.41,0,0,1-.4,0,1.14,1.14,0,0,1-.36-.15.81.81,0,0,1-.25-.27.78.78,0,0,1-.1-.41.68.68,0,0,1,.25-.56,1.54,1.54,0,0,1,.6-.3,3.37,3.37,0,0,1,.73-.12l.63,0h.34Zm2.38,2H75V33.82h-.66ZM82.86,38a4.14,4.14,0,0,0-.89-.36,8.14,8.14,0,0,1-.88-.32,2,2,0,0,1-.68-.44,1,1,0,0,1-.28-.76,1.22,1.22,0,0,1,.14-.59,1.15,1.15,0,0,1,.35-.41,1.48,1.48,0,0,1,.49-.23,2,2,0,0,1,.55-.08,1.57,1.57,0,0,1,1.39.71l.64-.5a2.35,2.35,0,0,0-.92-.69,3,3,0,0,0-1.11-.19,3.06,3.06,0,0,0-.85.12,2.26,2.26,0,0,0-.74.38,1.84,1.84,0,0,0-.53.64,2.2,2.2,0,0,0,0,1.74,1.44,1.44,0,0,0,.42.55,2.3,2.3,0,0,0,.58.37c.22.09.45.18.68.25l.68.23a2.15,2.15,0,0,1,.59.28,1.4,1.4,0,0,1,.42.42,1.16,1.16,0,0,1,.15.62,1.1,1.1,0,0,1-.14.57,1.29,1.29,0,0,1-.36.41A1.42,1.42,0,0,1,82,41a1.7,1.7,0,0,1-.54.09,1.9,1.9,0,0,1-1-.24,1.67,1.67,0,0,1-.65-.64l-.67.48a2.33,2.33,0,0,0,1,.82,3.1,3.1,0,0,0,1.25.25,2.53,2.53,0,0,0,.85-.14,2.43,2.43,0,0,0,.76-.41,2,2,0,0,0,.55-.66,1.93,1.93,0,0,0,.2-.88,1.75,1.75,0,0,0-.27-1A2.21,2.21,0,0,0,82.86,38Zm6.28-.64a2.57,2.57,0,0,0-.8-.52,2.81,2.81,0,0,0-2,0A2.38,2.38,0,0,0,85,38.15a2.73,2.73,0,0,0-.18,1,2.7,2.7,0,0,0,.18,1,2.43,2.43,0,0,0,.53.8,2.27,2.27,0,0,0,.79.52,2.81,2.81,0,0,0,2,0,2.4,2.4,0,0,0,.8-.52,2.57,2.57,0,0,0,.52-.8,2.7,2.7,0,0,0,.18-1,2.73,2.73,0,0,0-.18-1A2.57,2.57,0,0,0,89.14,37.35ZM89,39.9a2,2,0,0,1-.36.6,1.85,1.85,0,0,1-.56.4,1.79,1.79,0,0,1-.75.15,1.72,1.72,0,0,1-.74-.15,1.63,1.63,0,0,1-.56-.4,2,2,0,0,1-.36-.6,2.37,2.37,0,0,1,0-1.49A1.93,1.93,0,0,1,86,37.8a1.63,1.63,0,0,1,.56-.4,1.72,1.72,0,0,1,.74-.15,1.79,1.79,0,0,1,.75.15,1.85,1.85,0,0,1,.56.4,1.93,1.93,0,0,1,.36.61,2.37,2.37,0,0,1,0,1.49Zm2.22,1.64h.67V33.82h-.67Zm6.35-1V36.76h-.67v2.45a2.17,2.17,0,0,1-.2,1,1.62,1.62,0,0,1-.46.55,1.23,1.23,0,0,1-.5.23l-.28,0a1.56,1.56,0,0,1-.62-.11.89.89,0,0,1-.4-.31,1.29,1.29,0,0,1-.21-.52,3.65,3.65,0,0,1-.06-.7V36.76h-.67v3a2,2,0,0,0,.44,1.39,1.74,1.74,0,0,0,1.35.48,2,2,0,0,0,.47-.06,2.25,2.25,0,0,0,.45-.19,1.78,1.78,0,0,0,.38-.28,1.64,1.64,0,0,0,.29-.36h0v.39l0,.38h.69c0-.18,0-.36,0-.56S97.56,40.62,97.56,40.49Zm3.7.51a1.49,1.49,0,0,1-.36,0,.86.86,0,0,1-.28,0,.45.45,0,0,1-.21-.12.71.71,0,0,1-.15-.26,1.78,1.78,0,0,1-.05-.44V37.37h1.37v-.61h-1.37V35.41h-.67v1.35h-1v.61h1v3a1.46,1.46,0,0,0,.12.64,1.15,1.15,0,0,0,.28.39,1,1,0,0,0,.38.19,1.41,1.41,0,0,0,.4,0,2.07,2.07,0,0,0,.9-.17l0-.62A1.62,1.62,0,0,1,101.26,41Zm1.39.54h.67V36.76h-.67Zm.33-7.11a.49.49,0,0,0-.33.14.44.44,0,0,0-.16.36.44.44,0,0,0,.16.35.48.48,0,0,0,.33.13.52.52,0,0,0,.34-.13.47.47,0,0,0,.15-.35.46.46,0,0,0-.15-.36A.53.53,0,0,0,103,34.43Zm6,2.92a2.52,2.52,0,0,0-.79-.52,2.61,2.61,0,0,0-1-.19,2.39,2.39,0,0,0-2.33,1.51,2.74,2.74,0,0,0-.19,1,2.7,2.7,0,0,0,.19,1,2.57,2.57,0,0,0,.52.8,2.4,2.4,0,0,0,.8.52,2.56,2.56,0,0,0,1,.19,2.61,2.61,0,0,0,1-.19A2.36,2.36,0,0,0,109,41a2.4,2.4,0,0,0,.52-.8,2.51,2.51,0,0,0,.19-1,2.54,2.54,0,0,0-.19-1A2.4,2.4,0,0,0,109,37.35Zm-.14,2.55a1.84,1.84,0,0,1-.37.6,1.63,1.63,0,0,1-.56.4,1.93,1.93,0,0,1-1.49,0,1.74,1.74,0,0,1-.56-.4,1.79,1.79,0,0,1-.35-.6,2.2,2.2,0,0,1,0-1.49,1.63,1.63,0,0,1,.91-1,1.93,1.93,0,0,1,1.49,0,1.63,1.63,0,0,1,.56.4,1.78,1.78,0,0,1,.37.61,2.37,2.37,0,0,1,0,1.49Zm5.7-2.77a1.7,1.7,0,0,0-1.35-.49,1.53,1.53,0,0,0-.47.07,1.77,1.77,0,0,0-.45.18,1.84,1.84,0,0,0-.39.28,1.59,1.59,0,0,0-.28.36h0c0-.13,0-.26,0-.38s0-.26,0-.39h-.69l0,.56c0,.2,0,.37,0,.49v3.73h.67V39.09a2.05,2.05,0,0,1,.2-1,1.51,1.51,0,0,1,.46-.55,1.34,1.34,0,0,1,.49-.23l.29,0a1.1,1.1,0,0,1,1,.43,2.25,2.25,0,0,1,.27,1.22v2.64H115v-3A2,2,0,0,0,114.57,37.13ZM0,38.73H43V37.38H0Z" style="fill:#3172b9;fill-rule:evenodd"/></g></g></g></svg>