<svg xmlns="http://www.w3.org/2000/svg" viewBox="0 0 64 64"><g id="Слой_2" data-name="Слой 2"><g id="WHAT_WE_DO" data-name="WHAT WE DO"><g id="Funeral"><g id="icon"><path d="M63.55,12a4,4,0,0,0-2.35-2L39.07,3h0L39,2.79a4,4,0,0,0-5-2.6L2.79,10.05a4,4,0,0,0-2.6,5L14.8,61.21A4,4,0,0,0,18.62,64a3.92,3.92,0,0,0,1.21-.19L32,60l12.17,3.85a3.92,3.92,0,0,0,1.21.19,4,4,0,0,0,3.81-2.79l2.37-7.47v0a4,4,0,0,0,2-4.77l-.25-.78L63.81,15.07A4,4,0,0,0,63.55,12ZM46.65,60.4a1.33,1.33,0,0,1-1.67.87l-8.56-2.71,12-3.81ZM51,50.75a1.29,1.29,0,0,1-.78.65L31.65,57.27l-.09,0L19,61.27a1.33,1.33,0,0,1-1.67-.87L2.73,14.27a1.3,1.3,0,0,1,.09-1,1.34,1.34,0,0,1,.78-.66L34.75,2.73h0a1.33,1.33,0,0,1,1.67.87L51,49.73A1.39,1.39,0,0,1,51,50.75Zm-8.51-37,11,3.48L48.5,32.88Zm18.83.49L51.93,43.73l-2-6.43L56,18.07a2.68,2.68,0,0,0-1.74-3.35l-12.52-4a1.1,1.1,0,0,0-.26-.06L40,6.14,60.4,12.59a1.34,1.34,0,0,1,.87,1.68ZM27.19,23a5,5,0,0,0-2.61,2,4.92,4.92,0,0,0-6.47,6.08,4.58,4.58,0,0,0,2.66,2.88l5.51,2.25a2.71,2.71,0,0,0,1,.2,3,3,0,0,0,.84-.12,2.76,2.76,0,0,0,1.48-1.14l3.21-5a4.61,4.61,0,0,0,.52-3.89A4.94,4.94,0,0,0,27.19,23Zm3.42,5.66-3.21,5s0,0,0,0h-.06l-5.52-2.25a2,2,0,0,1-1.12-1.22,2.26,2.26,0,0,1,1.47-2.83,2.07,2.07,0,0,1,.69-.11,2.21,2.21,0,0,1,1.49.57,1.34,1.34,0,0,0,2.18-.69,2.26,2.26,0,0,1,3.23-1.49A2.27,2.27,0,0,1,30.83,27,2,2,0,0,1,30.61,28.67ZM34.29,9.75A2.66,2.66,0,0,0,30.94,8L9.75,14.72A2.68,2.68,0,0,0,8,18.07l9.88,31.19a2.68,2.68,0,0,0,2.55,1.86,2.53,2.53,0,0,0,.8-.13l21.2-6.71A2.7,2.7,0,0,0,44,43a2.64,2.64,0,0,0,.17-2ZM20.43,48.45,10.55,17.26,22,13.65l9.77-3.1,9.88,31.19Z" style="fill:#fff;fill-rule:evenodd"/></g></g></g></g></svg>