<svg xmlns="http://www.w3.org/2000/svg" viewBox="0 0 86 64"><g id="Слой_2" data-name="Слой 2"><g id="WHAT_WE_DO" data-name="WHAT WE DO"><g id="Health"><g id="icon"><path d="M83.87,26.27H78.72a20.37,20.37,0,0,0,.9-6A20.23,20.23,0,0,0,45.07,5.94L43.46,7.55l-1.6-1.61A20.23,20.23,0,0,0,8.47,27H2.13a2.14,2.14,0,0,0,0,4.27H10a1.91,1.91,0,0,0,.54-.08,20.69,20.69,0,0,0,2.74,3.44L42,63.37a2.1,2.1,0,0,0,1.5.63A2.12,2.12,0,0,0,45,63.37L73.69,34.61a20.41,20.41,0,0,0,3.18-4.16,2.35,2.35,0,0,0,.6.09h6.4a2.14,2.14,0,0,0,0-4.27ZM16.25,9A15.95,15.95,0,0,1,38.84,9L42,12.08a2.13,2.13,0,0,0,3,0L48.08,9A16,16,0,0,1,73.83,27.05H56.35l-3.17-7a1.42,1.42,0,0,0-2.64.11L44.05,38.49,36.16,16.6a1.42,1.42,0,0,0-1.27-.94,1.38,1.38,0,0,0-1.35.82l-5.3,11.28H13.43A16,16,0,0,1,16.25,9ZM43.46,58.84,16.25,31.59a13.09,13.09,0,0,1-.94-1.05H29.44c.55,0,.75-.25,1-.75l4.22-9,8.08,22.4a1.43,1.43,0,0,0,1.34.94h0a1.44,1.44,0,0,0,1.33-1l6.65-18.75,2.09,4.62a1.86,1.86,0,0,0,1.6.77H72.17a16.34,16.34,0,0,1-1.49,1.76Z" style="fill:#3172b9;fill-rule:evenodd"/></g></g></g></g></svg>