<svg xmlns="http://www.w3.org/2000/svg" viewBox="0 0 65 65"><g id="Слой_2" data-name="Слой 2"><g id="WHAT_WE_DO" data-name="WHAT WE DO"><g id="Legal"><g id="icon"><path d="M63.13,51.51,42.62,31l2.86-2.86.51,0a6.36,6.36,0,0,0,4.51-1.87l2.73-2.73a6.39,6.39,0,0,0,0-9L40.58,1.87a6.4,6.4,0,0,0-9,0L28.82,4.6a6.39,6.39,0,0,0-1.85,5L9.62,27l-.51,0a6.34,6.34,0,0,0-4.52,1.87L1.87,31.54a6.39,6.39,0,0,0,0,9L14.52,53.23a6.39,6.39,0,0,0,9,0l2.73-2.73A6.36,6.36,0,0,0,28.15,46c0-.17,0-.35,0-.51L31,42.61,51.51,63.13a6.39,6.39,0,0,0,9,0l2.59-2.59A6.39,6.39,0,0,0,63.13,51.51ZM27.71,39.24,22.55,44.4l.4.4a1.67,1.67,0,0,1,0,2.37L20.23,49.9a1.69,1.69,0,0,1-2.38,0L5.19,37.25a1.7,1.7,0,0,1,0-2.38l2.73-2.72a1.67,1.67,0,0,1,2.38,0l.4.4L32.55,10.7l-.4-.4a1.68,1.68,0,0,1,0-2.38L34.87,5.2a1.69,1.69,0,0,1,2.38,0L49.9,17.85a1.68,1.68,0,0,1,0,2.38L47.18,23a1.69,1.69,0,0,1-2.38,0l-.4-.4-5.15,5.16-3.46,3.46-4.62,4.61Zm32.1,18-2.6,2.59a1.68,1.68,0,0,1-2.37,0L34.32,39.29l5-5L59.81,54.83A1.7,1.7,0,0,1,59.81,57.21Z" style="fill:#3172b9;fill-rule:evenodd"/></g></g></g></g></svg>