<svg xmlns="http://www.w3.org/2000/svg" viewBox="0 0 68 66"><g id="Слой_2" data-name="Слой 2"><g id="WHAT_WE_DO" data-name="WHAT WE DO"><g id="Legacy"><g id="icon"><path d="M50.39,0A18.08,18.08,0,0,0,31.9,17.51l-.13,5a2.49,2.49,0,0,0,5,.11l.12-5A13.08,13.08,0,0,1,63,18.19a13.09,13.09,0,0,1-13.4,12.68L18.5,30.2A17.91,17.91,0,1,0,36.1,48.49l.12-4.92a2.47,2.47,0,0,0-2.42-2.52,2.5,2.5,0,0,0-2.55,2.41l-.12,4.92A13.08,13.08,0,1,1,18.38,35.13l31.12.67A17.91,17.91,0,1,0,50.39,0Z" style="fill:#3172b9;fill-rule:evenodd"/></g></g></g></g></svg>