<svg xmlns="http://www.w3.org/2000/svg" viewBox="0 0 14 17"><defs><style>.cls-1{fill:#787878;fill-rule:evenodd;}</style></defs><g id="Слой_2" data-name="Слой 2"><g id="HERO_IMAGE" data-name="HERO IMAGE"><g id="Secured"><g id="Shield-icon"><path class="cls-1" d="M14,4.38c0-.46,0-.9,0-1.31a.59.59,0,0,0-.59-.6,7.94,7.94,0,0,1-6-2.3.57.57,0,0,0-.82,0,7.94,7.94,0,0,1-6,2.3.6.6,0,0,0-.59.6c0,.41,0,.85,0,1.31C-.06,8.65-.17,14.5,6.81,17a.62.62,0,0,0,.38,0C14.17,14.5,14.06,8.65,14,4.38ZM7,15.77C1,13.55,1.1,8.69,1.18,4.4c0-.26,0-.51,0-.75A8.86,8.86,0,0,0,7,1.4a8.86,8.86,0,0,0,5.8,2.25c0,.24,0,.49,0,.75C12.9,8.69,13,13.55,7,15.77ZM9,6.43,6.19,9.3,5,8.08a.57.57,0,0,0-.82,0,.6.6,0,0,0,0,.84l1.61,1.65a.6.6,0,0,0,.41.17.63.63,0,0,0,.42-.17l3.22-3.3a.6.6,0,0,0,0-.84A.57.57,0,0,0,9,6.43Z"/></g></g></g></g></svg>